General
Complete name                    : Divas Live (1998) [DVDRip].mp4
Format                           : MPEG-4
Format profile                   : Base Media / Version 2
Codec ID                         : mp42
File size                        : 971 MiB
Duration                         : 1h 20mn
Overall bit rate                 : 1 695 Kbps
Encoded date                     : UTC 2011-10-01 18:00:08
Tagged date                      : UTC 2011-10-01 19:24:50

Video
ID                               : 1
Format                           : AVC
Format/Info                      : Advanced Video Codec
Format profile                   : Main@L3.0
Format settings, CABAC           : Yes
Format settings, ReFrames        : 2 frames
Codec ID                         : avc1
Codec ID/Info                    : Advanced Video Coding
Duration                         : 1h 20mn
Bit rate mode                    : Variable
Bit rate                         : 1 235 Kbps
Maximum bit rate                 : 7 743 Kbps
Width                            : 720 pixels
Height                           : 480 pixels
Display aspect ratio             : 4:3
Frame rate mode                  : Constant
Frame rate                       : 29.970 fps
Standard                         : NTSC
Color space                      : YUV
Chroma subsampling               : 4:2:0
Bit depth                        : 8 bits
Scan type                        : Progressive
Bits/(Pixel*Frame)               : 0.119
Stream size                      : 707 MiB (73%)
Language                         : English
Encoded date                     : UTC 2011-10-01 18:00:10
Tagged date                      : UTC 2011-10-01 19:24:50
Material_Duration                : 4804800
Material_StreamSize              : 741631953
Material_FrameCount              : 144000

Audio
ID                               : 2
Format                           : AC-3
Format/Info                      : Audio Coding 3
Mode extension                   : CM (complete main)
Codec ID                         : ac-3
Duration                         : 1h 20mn
Bit rate mode                    : Constant
Bit rate                         : 448 Kbps
Channel(s)                       : 6 channels
Channel positions                : Front: L C R, Side: L R, LFE
Sampling rate                    : 48.0 KHz
Bit depth                        : 16 bits
Compression mode                 : Lossy
Stream size                      : 257 MiB (26%)
Title                            : Inglês
Language                         : English
Encoded date                     : UTC 2011-10-01 18:00:10
Tagged date                      : UTC 2011-10-01 19:24:50
Material_Duration                : 4804768
Material_StreamSize              : 269067008

Text #1
ID                               : 3
Format                           : mp4s
Codec ID                         : E0
Duration                         : 1h 19mn
Bit rate mode                    : Variable
Bit rate                         : 3 728 bps
Maximum bit rate                 : 70.3 Kbps
Stream size                      : 2.13 MiB (0%)
Title                            : Inglês
Language                         : English
Encoded date                     : UTC 2011-10-01 18:00:16
Tagged date                      : UTC 2011-10-01 19:24:50
Material_Duration                : 4785748
Material_StreamSize              : 2232603

Text #2
ID                               : 4
Format                           : mp4s
Codec ID                         : E0
Duration                         : 1h 19mn
Bit rate mode                    : Variable
Bit rate                         : 3 600 bps
Maximum bit rate                 : 72.4 Kbps
Stream size                      : 2.06 MiB (0%)
Title                            : Espanhol
Language                         : Spanish
Encoded date                     : UTC 2011-10-01 18:00:16
Tagged date                      : UTC 2011-10-01 19:24:50
Material_Duration                : 4785748
Material_StreamSize              : 2154853

Menu
MARIAH CAREY
-My All
-Make It Happen
GLORIA ESTEFAN
-Heaven's What I Feel
-Turn The Beat Around
-(Megamix Medley)
SHANIA TWAIN
-Man! I Feel Like A Woman
-You're Still The One
ARETHA FRANKLIN & MARIAH CAREY
-Chain Of Fools
CELINE DION & CAROLE KING
-The Reason
CELINE DION
-River Deep, Mountain High
-My Heart Will Go On
CELINE DION, GLORIA ESTEFAN, SHANIA TWAIN, & CAROLE KING 
-You've Got A Friend
THE DIVAS
-(You Make Me Feel Like A) Natural Woman
-Testimony 